<?xml version="1.0" encoding="utf-8"?>
<!-- Generator: Adobe Illustrator 24.0.2, SVG Export Plug-In . SVG Version: 6.00 Build 0)  -->
<svg version="1.1" id="Capa_1" xmlns="http://www.w3.org/2000/svg" xmlns:xlink="http://www.w3.org/1999/xlink" x="0px" y="0px"
	 viewBox="0 0 258 157" style="enable-background:new 0 0 258 157;" xml:space="preserve">
<style type="text/css">
	.st0{fill:#001689;}
	.st1{fill:#99E6D8;}
	.st2{fill:#0082CA;}
	.st3{fill:#6FCFEB;}
</style>
<g>
	<path class="st0" d="M98.5,101.2l-2.9,7.2h0.9l0.9-2.2h3l0.9,2.2h0.9l-2.9-7.2H98.5z M100.1,105.4h-2.4l0.3-0.7
		c0.3-0.7,0.6-1.5,0.9-2.4h0c0.3,0.9,0.6,1.7,0.9,2.4L100.1,105.4z"/>
	<polygon class="st0" points="104.2,101.2 103.3,101.2 103.3,108.3 107.7,108.3 107.7,107.6 104.2,107.6 	"/>
	<path class="st0" d="M113.5,105.1c-0.1-0.1-0.3-0.2-0.5-0.3c-0.2-0.1-0.4-0.1-0.6-0.2v0c0.2-0.1,0.4-0.2,0.5-0.3
		c0.1-0.1,0.3-0.2,0.4-0.4c0.1-0.1,0.2-0.3,0.2-0.4c0-0.2,0.1-0.3,0.1-0.5c0-0.2,0-0.4-0.1-0.6c-0.1-0.2-0.2-0.4-0.3-0.5
		c-0.1-0.1-0.3-0.3-0.5-0.4c-0.2-0.1-0.4-0.2-0.6-0.2c-0.1,0-0.2,0-0.3-0.1c-0.1,0-0.2,0-0.3,0c-0.1,0-0.2,0-0.4,0
		c-0.1,0-0.3,0-0.4,0H109v7.2h1.8c0.4,0,0.7,0,0.9,0c0.3,0,0.5-0.1,0.7-0.2c0.3-0.1,0.5-0.2,0.7-0.4c0.2-0.1,0.3-0.3,0.5-0.5
		c0.1-0.2,0.2-0.4,0.2-0.5c0-0.2,0.1-0.4,0.1-0.5c0-0.2,0-0.4-0.1-0.6C113.8,105.4,113.7,105.3,113.5,105.1z M109.9,102h1
		c0.2,0,0.5,0,0.6,0c0.2,0,0.3,0,0.5,0.1c0.3,0.1,0.5,0.2,0.6,0.4c0.1,0.2,0.2,0.4,0.2,0.6c0,0.3-0.1,0.5-0.2,0.7
		c-0.1,0.2-0.3,0.3-0.6,0.4c-0.1,0-0.2,0.1-0.3,0.1c-0.1,0-0.3,0-0.4,0h-1.3V102z M113,106.6c0,0.1-0.1,0.2-0.2,0.3
		c-0.1,0.1-0.2,0.2-0.3,0.3c-0.1,0.1-0.3,0.2-0.4,0.2c-0.2,0.1-0.3,0.1-0.5,0.1c-0.2,0-0.4,0-0.7,0h-1.1v-2.5h1.4c0.2,0,0.4,0,0.5,0
		c0.1,0,0.3,0,0.4,0.1c0.2,0,0.3,0.1,0.4,0.2c0.1,0.1,0.2,0.2,0.3,0.2c0.1,0.1,0.1,0.2,0.2,0.3c0,0.1,0,0.2,0,0.4
		C113.1,106.4,113,106.5,113,106.6z"/>
	<polygon class="st0" points="116.4,105.1 119.5,105.1 119.5,104.3 116.4,104.3 116.4,102 119.9,102 119.9,101.2 115.5,101.2 
		115.5,108.3 120.1,108.3 120.1,107.6 116.4,107.6 	"/>
	<path class="st0" d="M124.4,105.3c0.3,0,0.5-0.1,0.8-0.2c0.2-0.1,0.4-0.2,0.6-0.4c0.2-0.2,0.3-0.4,0.4-0.6c0.1-0.2,0.1-0.5,0.1-0.8
		c0-0.5-0.1-0.9-0.4-1.2c-0.3-0.3-0.6-0.6-1.1-0.7c-0.2,0-0.4-0.1-0.6-0.1c-0.2,0-0.5,0-0.8,0h-1.9v7.2h0.9v-3h1.1l2.2,3h0.9
		L124.4,105.3L124.4,105.3z M123.3,104.6h-0.9V102h1c0.3,0,0.5,0,0.7,0c0.2,0,0.3,0,0.5,0.1c0.3,0.1,0.5,0.2,0.6,0.4
		c0.2,0.2,0.2,0.4,0.2,0.7c0,0.3-0.1,0.6-0.2,0.8c-0.2,0.2-0.4,0.4-0.7,0.4c-0.1,0-0.3,0.1-0.5,0.1
		C123.8,104.6,123.6,104.6,123.3,104.6z"/>
	<path class="st0" d="M132.3,107.6c-0.1,0-0.3,0-0.4,0.1c-0.1,0-0.3,0-0.4,0c-0.4,0-0.8-0.1-1.2-0.2c-0.4-0.1-0.7-0.3-0.9-0.5
		c-0.3-0.2-0.4-0.5-0.6-0.9c-0.1-0.4-0.2-0.8-0.2-1.3c0-0.5,0.1-0.9,0.2-1.3c0.1-0.4,0.4-0.7,0.6-0.9c0.3-0.3,0.6-0.4,0.9-0.6
		c0.3-0.1,0.7-0.2,1.1-0.2c0.3,0,0.5,0,0.8,0.1c0.3,0,0.5,0.1,0.7,0.2v-0.8c-0.1,0-0.2-0.1-0.3-0.1s-0.2-0.1-0.4-0.1
		c-0.1,0-0.3,0-0.4-0.1c-0.1,0-0.3,0-0.4,0c-0.6,0-1.1,0.1-1.5,0.3c-0.5,0.2-0.8,0.4-1.2,0.8c-0.3,0.3-0.6,0.7-0.7,1.2
		c-0.2,0.5-0.3,1-0.3,1.5c0,0.6,0.1,1.1,0.2,1.5c0.2,0.4,0.4,0.8,0.7,1.1c0.3,0.3,0.7,0.5,1.2,0.7c0.5,0.2,1,0.2,1.6,0.2
		c0.3,0,0.6,0,0.9-0.1c0.3,0,0.5-0.1,0.7-0.2v-0.8c-0.1,0-0.2,0.1-0.3,0.1C132.6,107.6,132.5,107.6,132.3,107.6z"/>
	<path class="st0" d="M136.7,101.2l-2.9,7.2h0.9l0.9-2.2h3l0.9,2.2h0.9l-2.9-7.2H136.7z M138.3,105.4h-2.4l0.3-0.7
		c0.3-0.7,0.6-1.5,0.9-2.4h0c0.3,0.9,0.6,1.7,0.9,2.4L138.3,105.4z"/>
	<path class="st0" d="M145.3,104.9c-0.2-0.1-0.4-0.3-0.7-0.3c-0.3-0.1-0.5-0.2-0.8-0.2c-0.2,0-0.4-0.1-0.6-0.2
		c-0.2-0.1-0.4-0.1-0.5-0.2c-0.1-0.1-0.3-0.2-0.3-0.3c-0.1-0.1-0.1-0.3-0.1-0.5c0-0.2,0-0.4,0.1-0.5c0.1-0.2,0.2-0.3,0.3-0.4
		c0.1-0.1,0.3-0.2,0.5-0.3c0.2-0.1,0.4-0.1,0.7-0.1c0.4,0,0.7,0,1,0.1c0.3,0.1,0.6,0.2,0.9,0.3v-0.8c-0.3-0.1-0.6-0.2-0.9-0.3
		c-0.3-0.1-0.7-0.1-1.1-0.1c-0.3,0-0.7,0-0.9,0.1c-0.3,0.1-0.6,0.2-0.8,0.4c-0.2,0.2-0.4,0.4-0.5,0.7c-0.1,0.3-0.2,0.6-0.2,0.9
		c0,0.4,0.1,0.6,0.2,0.9c0.1,0.2,0.3,0.4,0.5,0.6c0.2,0.1,0.4,0.3,0.7,0.3c0.3,0.1,0.5,0.2,0.8,0.2c0.2,0.1,0.4,0.1,0.6,0.2
		c0.2,0.1,0.4,0.1,0.5,0.2c0.1,0.1,0.3,0.2,0.4,0.3c0.1,0.1,0.1,0.3,0.1,0.5c0,0.3,0,0.5-0.2,0.7c-0.1,0.2-0.2,0.3-0.4,0.4
		c-0.2,0.1-0.4,0.2-0.6,0.2c-0.2,0-0.5,0.1-0.7,0.1c-0.2,0-0.3,0-0.5,0c-0.2,0-0.3-0.1-0.5-0.1c-0.2,0-0.3-0.1-0.5-0.1
		c-0.2-0.1-0.3-0.1-0.4-0.2v0.8c0.1,0,0.2,0.1,0.3,0.2c0.1,0,0.3,0.1,0.5,0.1c0.2,0,0.4,0.1,0.6,0.1c0.2,0,0.4,0,0.6,0
		c0.4,0,0.8,0,1.1-0.1c0.3-0.1,0.6-0.2,0.9-0.4c0.2-0.2,0.4-0.4,0.6-0.7c0.1-0.3,0.2-0.6,0.2-1c0-0.4-0.1-0.7-0.2-0.9
		C145.7,105.2,145.5,105,145.3,104.9z"/>
	<polygon class="st0" points="150.9,104.7 150.9,104.7 148.8,101.2 147.8,101.2 150.4,105.5 150.4,108.3 151.3,108.3 151.3,105.5 
		153.9,101.2 153,101.2 	"/>
	<path class="st0" d="M158.5,106.6c0,0.2,0,0.4-0.1,0.5c-0.1,0.1-0.1,0.3-0.2,0.3c-0.1,0.1-0.2,0.1-0.3,0.2c-0.1,0-0.3,0.1-0.4,0.1
		c-0.2,0-0.3,0-0.5,0c-0.2,0-0.3-0.1-0.4-0.1v0.8c0.1,0,0.2,0.1,0.4,0.1c0.2,0,0.4,0.1,0.6,0.1c0.3,0,0.6,0,0.8-0.1
		c0.2-0.1,0.4-0.2,0.6-0.3c0.2-0.1,0.3-0.3,0.4-0.6c0.1-0.2,0.1-0.5,0.1-0.8v-5.5h-0.9V106.6z"/>
	<path class="st0" d="M163.3,101.2l-2.9,7.2h0.9l0.9-2.2h3l0.9,2.2h0.9l-2.9-7.2H163.3z M164.9,105.4h-2.4l0.3-0.7
		c0.3-0.7,0.6-1.5,0.9-2.4h0c0.3,0.9,0.6,1.7,0.9,2.4L164.9,105.4z"/>
	<path class="st0" d="M171,105.3c0.3,0,0.5-0.1,0.8-0.2c0.2-0.1,0.4-0.2,0.6-0.4c0.2-0.2,0.3-0.4,0.4-0.6c0.1-0.2,0.1-0.5,0.1-0.8
		c0-0.5-0.1-0.9-0.4-1.2c-0.3-0.3-0.6-0.6-1.1-0.7c-0.2,0-0.4-0.1-0.6-0.1c-0.2,0-0.5,0-0.8,0h-1.9v7.2h0.9v-3h1.1l2.2,3h0.9
		L171,105.3L171,105.3z M169.9,104.6H169V102h1c0.3,0,0.5,0,0.7,0c0.2,0,0.3,0,0.5,0.1c0.3,0.1,0.5,0.2,0.6,0.4
		c0.2,0.2,0.2,0.4,0.2,0.7c0,0.3-0.1,0.6-0.2,0.8c-0.2,0.2-0.4,0.4-0.7,0.4c-0.2,0-0.3,0.1-0.5,0.1
		C170.4,104.6,170.1,104.6,169.9,104.6z"/>
	<path class="st0" d="M179.8,102.6c-0.2-0.3-0.5-0.5-0.8-0.7c-0.3-0.2-0.7-0.4-1.1-0.5c-0.2-0.1-0.5-0.1-0.8-0.1c-0.3,0-0.6,0-0.9,0
		h-1.6v7.2h1.6c0.3,0,0.6,0,0.9,0c0.3,0,0.5-0.1,0.8-0.1c0.4-0.1,0.8-0.3,1.1-0.5c0.3-0.2,0.6-0.5,0.8-0.8c0.2-0.3,0.4-0.6,0.5-1
		c0.1-0.4,0.2-0.8,0.2-1.2c0-0.4-0.1-0.8-0.2-1.2C180.2,103.2,180,102.9,179.8,102.6z M179.1,106.4c-0.3,0.4-0.7,0.8-1.3,0.9
		c-0.2,0.1-0.5,0.1-0.7,0.1s-0.6,0-0.9,0h-0.7V102h0.7c0.3,0,0.6,0,0.9,0c0.3,0,0.5,0.1,0.7,0.1c0.6,0.2,1,0.5,1.3,0.9
		c0.3,0.4,0.5,1,0.5,1.7C179.6,105.4,179.4,106,179.1,106.4z"/>
	<rect x="182" y="101.2" class="st0" width="0.9" height="7.2"/>
	<path class="st0" d="M189.6,105c0,0.7,0,1.4,0.1,2.1h0c-0.4-0.7-0.9-1.3-1.3-2l-2.8-4h-0.9v7.2h0.9v-3.7c0-0.9,0-1.6-0.1-2.3h0
		c0.4,0.6,0.8,1.3,1.3,2l2.8,4h0.9v-7.2h-0.9V105z"/>
	<polygon class="st0" points="193.2,105.1 196.3,105.1 196.3,104.3 193.2,104.3 193.2,102 196.7,102 196.7,101.2 192.3,101.2 
		192.3,108.3 196.9,108.3 196.9,107.6 193.2,107.6 	"/>
	<path class="st0" d="M202.2,104.9c-0.2-0.1-0.4-0.3-0.7-0.3c-0.3-0.1-0.5-0.2-0.8-0.2c-0.2,0-0.4-0.1-0.6-0.2
		c-0.2-0.1-0.4-0.1-0.5-0.2c-0.1-0.1-0.3-0.2-0.3-0.3c-0.1-0.1-0.1-0.3-0.1-0.5c0-0.2,0-0.4,0.1-0.5c0.1-0.2,0.2-0.3,0.3-0.4
		c0.1-0.1,0.3-0.2,0.5-0.3c0.2-0.1,0.4-0.1,0.7-0.1c0.4,0,0.7,0,1,0.1c0.3,0.1,0.6,0.2,0.9,0.3v-0.8c-0.3-0.1-0.6-0.2-0.9-0.3
		c-0.3-0.1-0.7-0.1-1.1-0.1c-0.3,0-0.7,0-0.9,0.1c-0.3,0.1-0.6,0.2-0.8,0.4c-0.2,0.2-0.4,0.4-0.5,0.7c-0.1,0.3-0.2,0.6-0.2,0.9
		c0,0.4,0.1,0.6,0.2,0.9c0.1,0.2,0.3,0.4,0.5,0.6c0.2,0.1,0.4,0.3,0.7,0.3c0.3,0.1,0.5,0.2,0.8,0.2c0.2,0.1,0.4,0.1,0.6,0.2
		c0.2,0.1,0.4,0.1,0.5,0.2c0.1,0.1,0.3,0.2,0.4,0.3c0.1,0.1,0.1,0.3,0.1,0.5c0,0.3,0,0.5-0.2,0.7c-0.1,0.2-0.2,0.3-0.4,0.4
		c-0.2,0.1-0.4,0.2-0.6,0.2c-0.2,0-0.5,0.1-0.7,0.1c-0.2,0-0.3,0-0.5,0c-0.2,0-0.3-0.1-0.5-0.1c-0.2,0-0.3-0.1-0.5-0.1
		c-0.2-0.1-0.3-0.1-0.4-0.2v0.8c0.1,0,0.2,0.1,0.3,0.2c0.1,0,0.3,0.1,0.5,0.1c0.2,0,0.4,0.1,0.6,0.1c0.2,0,0.4,0,0.6,0
		c0.4,0,0.8,0,1.1-0.1c0.3-0.1,0.6-0.2,0.9-0.4c0.2-0.2,0.4-0.4,0.6-0.7c0.1-0.3,0.2-0.6,0.2-1c0-0.4-0.1-0.7-0.2-0.9
		C202.5,105.2,202.4,105,202.2,104.9z"/>
	<path class="st0" d="M210.9,105.2c-0.2,0.4-0.4,1-0.6,1.7h0c-0.2-0.7-0.4-1.2-0.6-1.7l-1.7-4.1h-1.3v7.2h0.9v-3.5
		c0-0.8,0-1.7-0.1-2.7h0c0.2,0.7,0.5,1.3,0.8,1.9l1.8,4.3h0.4l1.8-4.3c0.2-0.5,0.5-1.2,0.8-1.9h0c0,1-0.1,1.9-0.1,2.7v3.5h0.9v-7.2
		h-1.3L210.9,105.2z"/>
	<path class="st0" d="M221.2,102.1c-0.3-0.3-0.6-0.6-1.1-0.8c-0.4-0.2-0.9-0.3-1.4-0.3c-0.5,0-1,0.1-1.4,0.3
		c-0.4,0.2-0.8,0.4-1.1,0.8c-0.3,0.3-0.5,0.7-0.7,1.2c-0.2,0.5-0.2,1-0.2,1.5c0,0.5,0.1,1,0.2,1.5c0.2,0.5,0.4,0.8,0.7,1.2
		c0.3,0.3,0.6,0.6,1.1,0.8c0.4,0.2,0.9,0.3,1.4,0.3c0.5,0,1-0.1,1.4-0.3c0.4-0.2,0.8-0.4,1.1-0.8c0.3-0.3,0.5-0.7,0.7-1.2
		c0.2-0.5,0.2-1,0.2-1.5c0-0.5-0.1-1-0.2-1.5C221.7,102.8,221.4,102.4,221.2,102.1z M221,106c-0.1,0.4-0.3,0.7-0.5,0.9
		c-0.2,0.2-0.5,0.4-0.8,0.6c-0.3,0.1-0.6,0.2-1,0.2c-0.4,0-0.7-0.1-1-0.2c-0.3-0.1-0.6-0.3-0.8-0.6c-0.2-0.2-0.4-0.6-0.5-0.9
		c-0.1-0.4-0.2-0.8-0.2-1.3c0-0.5,0.1-0.9,0.2-1.3c0.1-0.4,0.3-0.7,0.5-0.9c0.2-0.2,0.5-0.4,0.8-0.6c0.3-0.1,0.6-0.2,1-0.2
		s0.7,0.1,1,0.2c0.3,0.1,0.6,0.3,0.8,0.6c0.2,0.2,0.4,0.6,0.5,0.9c0.1,0.4,0.2,0.8,0.2,1.3C221.2,105.2,221.1,105.7,221,106z"/>
	<path class="st0" d="M226.5,105.3c0.3,0,0.5-0.1,0.8-0.2c0.2-0.1,0.4-0.2,0.6-0.4c0.2-0.2,0.3-0.4,0.4-0.6c0.1-0.2,0.1-0.5,0.1-0.8
		c0-0.5-0.1-0.9-0.4-1.2c-0.3-0.3-0.6-0.6-1.1-0.7c-0.2,0-0.4-0.1-0.6-0.1c-0.2,0-0.5,0-0.8,0h-1.9v7.2h0.9v-3h1.1l2.2,3h0.9
		L226.5,105.3L226.5,105.3z M225.4,104.6h-0.9V102h1c0.3,0,0.5,0,0.7,0c0.2,0,0.3,0,0.5,0.1c0.3,0.1,0.5,0.2,0.6,0.4
		c0.2,0.2,0.2,0.4,0.2,0.7c0,0.3-0.1,0.6-0.2,0.8c-0.2,0.2-0.4,0.4-0.7,0.4c-0.2,0-0.3,0.1-0.5,0.1
		C225.9,104.6,225.7,104.6,225.4,104.6z"/>
	<polygon class="st0" points="231,105.1 234.1,105.1 234.1,104.3 231,104.3 231,102 234.5,102 234.5,101.2 230.1,101.2 230.1,108.3 
		234.7,108.3 234.7,107.6 231,107.6 	"/>
	<polygon class="st0" points="237.1,101.2 236.2,101.2 236.2,108.3 240.6,108.3 240.6,107.6 237.1,107.6 	"/>
	<path class="st0" d="M247,102.1c-0.3-0.3-0.6-0.6-1.1-0.8c-0.4-0.2-0.9-0.3-1.4-0.3c-0.5,0-1,0.1-1.4,0.3c-0.4,0.2-0.8,0.4-1.1,0.8
		c-0.3,0.3-0.5,0.7-0.7,1.2c-0.2,0.5-0.2,1-0.2,1.5c0,0.5,0.1,1,0.2,1.5c0.2,0.5,0.4,0.8,0.7,1.2c0.3,0.3,0.6,0.6,1.1,0.8
		c0.4,0.2,0.9,0.3,1.4,0.3c0.5,0,1-0.1,1.4-0.3c0.4-0.2,0.8-0.4,1.1-0.8c0.3-0.3,0.5-0.7,0.7-1.2c0.2-0.5,0.2-1,0.2-1.5
		c0-0.5-0.1-1-0.2-1.5C247.5,102.8,247.3,102.4,247,102.1z M246.8,106c-0.1,0.4-0.3,0.7-0.5,0.9c-0.2,0.2-0.5,0.4-0.8,0.6
		c-0.3,0.1-0.6,0.2-1,0.2c-0.4,0-0.7-0.1-1-0.2c-0.3-0.1-0.6-0.3-0.8-0.6c-0.2-0.2-0.4-0.6-0.5-0.9c-0.1-0.4-0.2-0.8-0.2-1.3
		c0-0.5,0.1-0.9,0.2-1.3c0.1-0.4,0.3-0.7,0.5-0.9c0.2-0.2,0.5-0.4,0.8-0.6c0.3-0.1,0.6-0.2,1-0.2c0.3,0,0.7,0.1,1,0.2
		c0.3,0.1,0.6,0.3,0.8,0.6c0.2,0.2,0.4,0.6,0.5,0.9c0.1,0.4,0.2,0.8,0.2,1.3C247,105.2,247,105.7,246.8,106z"/>
	<path class="st0" d="M253.8,105.4c-0.1-0.2-0.3-0.4-0.5-0.6c-0.2-0.1-0.4-0.3-0.7-0.3c-0.3-0.1-0.5-0.2-0.8-0.2
		c-0.2,0-0.4-0.1-0.6-0.2c-0.2-0.1-0.4-0.1-0.5-0.2c-0.1-0.1-0.3-0.2-0.3-0.3c-0.1-0.1-0.1-0.3-0.1-0.5c0-0.2,0-0.4,0.1-0.5
		c0.1-0.2,0.2-0.3,0.3-0.4c0.1-0.1,0.3-0.2,0.5-0.3c0.2-0.1,0.4-0.1,0.7-0.1c0.4,0,0.7,0,1,0.1c0.3,0.1,0.6,0.2,0.9,0.3v-0.8
		c-0.3-0.1-0.6-0.2-0.9-0.3c-0.3-0.1-0.7-0.1-1.1-0.1c-0.3,0-0.7,0-0.9,0.1c-0.3,0.1-0.6,0.2-0.8,0.4c-0.2,0.2-0.4,0.4-0.5,0.7
		c-0.1,0.3-0.2,0.6-0.2,0.9c0,0.4,0.1,0.6,0.2,0.9c0.1,0.2,0.3,0.4,0.5,0.6c0.2,0.1,0.4,0.3,0.7,0.3c0.3,0.1,0.5,0.2,0.8,0.2
		c0.2,0.1,0.4,0.1,0.6,0.2c0.2,0.1,0.4,0.1,0.5,0.2c0.1,0.1,0.3,0.2,0.4,0.3c0.1,0.1,0.1,0.3,0.1,0.5c0,0.3,0,0.5-0.2,0.7
		c-0.1,0.2-0.2,0.3-0.4,0.4c-0.2,0.1-0.4,0.2-0.6,0.2c-0.2,0-0.5,0.1-0.7,0.1c-0.2,0-0.3,0-0.5,0c-0.2,0-0.3-0.1-0.5-0.1
		c-0.2,0-0.3-0.1-0.5-0.1c-0.2-0.1-0.3-0.1-0.4-0.2v0.8c0.1,0,0.2,0.1,0.3,0.2c0.1,0,0.3,0.1,0.5,0.1c0.2,0,0.4,0.1,0.6,0.1
		c0.2,0,0.4,0,0.6,0c0.4,0,0.8,0,1.1-0.1c0.3-0.1,0.6-0.2,0.9-0.4c0.2-0.2,0.4-0.4,0.6-0.7c0.1-0.3,0.2-0.6,0.2-1
		C254,106,253.9,105.7,253.8,105.4z"/>
	<path class="st1" d="M63.7,66.7c-4.1-3.9-9.3-4.6-12-4.7c-0.4,0.3-0.7,0.6-1.1,0.9c-3.5,2.9-5.9,6.7-7.1,11c2,0,4.3,0.1,7.1,0.4
		c10.8,1,20,8.1,20,8.1S69.5,72.2,63.7,66.7z"/>
	<g>
		<g>
			<path class="st2" d="M92.3,81.5C92.3,81.5,92.3,81.6,92.3,81.5c-1.4,2,0,4.6,0.3,5.1c-0.1-0.3-0.6-1.3,0-3.1c0-0.1,0-0.1,0.1-0.1
				c0.9-1.9,5-0.8,3.4,3.1c-0.1,0.3-0.3,0.5-0.5,0.8c-1.1,1.5-3.4,2.5-5.9,3c-0.7,0.1-1.3,0.2-2,0.3c-1,0.1-2,0.1-3,0.1
				c-0.3,0-0.6,0-0.8-0.1c-2,1.4-4.5,2.4-7.1,2.5c-0.6,0-1.3,0-1.9,0c-0.8-0.1-1.5-0.2-2.3-0.4c0,0,0,0-0.1,0
				c-0.9-0.2-1.7-0.5-2.5-0.8c-4.3-1.5-7.6-3-10.4-3.9c0,0,0,0,0,0c-1.1,0.1-2.2,0.1-3.4,0.2c-4.3,0.4-7.4,2-9.5,3.7
				c0,0,0,0.1,0.1,0.1c0,0,0,0,0.1,0.1c0.5,0.8,1.1,1.5,1.7,2.2c0.2,0.2,0.4,0.4,0.6,0.7c0,0,0.1,0.1,0.1,0.1
				c2.8,2.9,6.4,4.9,10.4,5.9l0.6,0.1c0.2,0,0.4,0.1,0.6,0.1c0,0,0,0,0,0c2.1,0.4,4.3,0.9,6.4,1.2c1.1,0.2,2.2,0.3,3.3,0.4
				c0.5,0.1,1.1,0.1,1.6,0.1c0.9,0.1,1.8,0.1,2.6,0.1c0.8,0,1.7,0,2.5-0.1c0,0-0.1,0.1-0.1,0.1c8.7-0.9,16.3-4,19.9-9.5
				c1-1.5,1.7-3.3,2.1-5.2c0.1-0.7,0.2-1.5,0.2-2.3C99.6,80,93.9,79.4,92.3,81.5z"/>
		</g>
	</g>
	<path class="st3" d="M87.3,83.8c-0.1-1.2-0.5-2.1-0.9-2.8c0,0,0-0.1-0.1-0.1c-0.2-0.3-0.4-0.6-0.6-0.8c-1-1-2.1-1.2-2.1-1.2
		c-1.3-0.1-3.1,0.1-3.3,2.4c-0.1,2.1,1.5,3,1.6,3.1c-0.1-0.1-0.5-0.4-0.9-1.5c-0.6-1.2,1-3.3,2.8-2.2c0.7,0.5,1.2,1.4,1.1,2.4
		c-0.1,1.3-1.3,2.6-4.1,3h0c-1.8,0.2-3.3,0.3-4.4,0.3c0,0,0,0-0.1,0c-3.4-0.3-6.9-1.2-11.8-4.9c-5.7-4.2-7.5-5-16.1-5.6
		c-1.9-0.1-3.4-0.2-4.5-0.2c-0.3,0-0.5,0-0.8,0c0,0,0,0.1,0,0.1l0,0.1c-0.2,1.2-0.3,2.5-0.3,3.8c0,3.9,1,7.7,3,11.1
		c1.1-0.8,2.4-1.6,3.7-2.3c3.4-1.9,6.3-1.7,9.9-0.5c0,0,0,0,0,0c2.9,0.9,6.2,2.4,10.4,3.9c0.8,0.3,1.6,0.6,2.5,0.8c0,0,0,0,0.1,0
		c0.7,0.2,1.5,0.3,2.3,0.4c0.6,0.1,1.3,0.1,1.9,0c2.6-0.1,5.2-1.1,7.1-2.5c1.5-1.1,2.7-2.5,3.3-4.1C87.3,85.6,87.4,84.7,87.3,83.8z"
		/>
	<path class="st0" d="M17.6,58.6L4,93h6.7l3.4-8.8h13l3.4,8.8H37L23.4,58.6H17.6z M25,79h-8.9l1.2-3.1c0.9-2.4,2-5.4,3.2-9h0.1
		c1.2,3.6,2.3,6.6,3.2,9L25,79z M108.3,78.3c0,2.4-0.3,4.3-0.9,5.7c-0.7,1.5-1.6,2.6-2.9,3.3c-1.3,0.7-2.7,1-4.4,1
		c-0.3,0-0.6,0-0.9,0c-0.4,1.9-1.1,3.6-2.1,5.2c0.9,0.1,1.9,0.2,3,0.2c1.8,0,3.4-0.2,4.9-0.5c1.5-0.4,2.7-0.9,3.9-1.5
		c1.1-0.7,2.1-1.5,2.9-2.4c0.8-1,1.4-2,1.9-3.2c0.4-1,0.6-2,0.8-3.2c0.2-1.2,0.2-2.5,0.2-3.9V58.6h-6.3V78.3z M92.9,84
		c-0.1-0.2-0.2-0.4-0.2-0.7c0,0,0,0.1-0.1,0.1c-0.6,1.8-0.2,2.8,0,3.1c-0.3-0.5-1.7-3.1-0.3-5c-0.1-1-0.2-2.1-0.2-3.3V58.6h-6.3v4.6
		C80.9,57,73.3,53.1,64.6,53.1c-8,0-15.4,3.5-20.5,9.7c-2.6,3.2-4.4,6.9-5.3,10.9c-0.4,1.7-0.6,3.5-0.6,5.2c0,0.2,0,0.4,0,0.7
		c0,4.9,1.3,9.7,3.9,13.8c0.3,0.6,0.7,1.1,1.1,1.7c1.2,1.7,2.6,3.3,4.2,4.6c4.8,4.1,11,6.4,17.3,6.4c3.5,0,6.9-0.7,10.2-2
		c0.8-0.4,1.7-0.7,2.5-1.2c0,0,0.1-0.1,0.1-0.1c-0.8,0.1-1.7,0.1-2.5,0.1c-0.9,0-1.8,0-2.6-0.1c-0.6,0-1.1-0.1-1.6-0.1
		c-1.1-0.1-2.2-0.3-3.3-0.4c-2.1-0.3-4.3-0.8-6.4-1.2c0,0,0,0,0,0c-0.2,0-0.4-0.1-0.6-0.1l-0.6-0.1c-4-0.9-7.6-3-10.4-5.9
		c0,0-0.1-0.1-0.1-0.1c-0.2-0.2-0.4-0.4-0.6-0.7c-0.6-0.7-1.2-1.4-1.7-2.2c0-0.1-0.1-0.1-0.1-0.1c0,0,0-0.1-0.1-0.1
		c-0.2-0.3-0.5-0.7-0.7-1.1c0,0,0,0,0-0.1c-2-3.3-3-7.1-3-11.1c0-1.3,0.1-2.6,0.3-3.8l0-0.1c0,0,0-0.1,0-0.1
		c0.1-0.5,0.2-0.9,0.3-1.5c0-0.1,0.1-0.2,0.1-0.3c1.2-4.3,3.6-8.1,7.1-11c0.4-0.3,0.7-0.6,1.1-0.9c3.7-2.7,8.2-4.2,12.8-4.2
		c10,0,18.5,6.4,21.2,15.5v5.5c0,0.4,0,0.8,0,1.2c0.2,0.2,0.4,0.5,0.6,0.8c0,0,0.1,0.1,0.1,0.1c0.4,0.7,0.8,1.6,0.9,2.8
		c0.1,0.9,0,1.8-0.3,2.6c0.4,1,1,1.9,1.6,2.7c0.3,0.4,0.6,0.7,1,1c2.6-0.5,4.8-1.5,5.9-3C94.4,86.5,93.5,85.5,92.9,84z M133,58.6
		L119.4,93h6.7l3.4-8.8h13l3.4,8.8h6.7l-13.6-34.4H133z M140.4,79h-8.9l1.2-3.1c0.9-2.4,2-5.4,3.2-9h0.1c1.2,3.6,2.3,6.6,3.2,9
		L140.4,79z M174.9,59.5c-1-0.3-2.1-0.5-3.3-0.7c-1.2-0.1-2.7-0.2-4.4-0.2h-9.9V93h6.3V79.6c0.5,0.1,1,0.1,1.5,0.1
		c0.5,0,1.1,0,1.7,0c2.5,0,4.7-0.2,6.6-0.7c1.9-0.5,3.5-1.2,4.8-2.1c1.3-0.9,2.3-2.1,3-3.4c0.7-1.3,1-2.8,1-4.5c0-2.4-0.6-4.4-1.9-6
		C179.1,61.4,177.3,60.2,174.9,59.5z M175.3,71.1c-0.3,0.7-0.8,1.3-1.5,1.8c-0.7,0.5-1.6,0.9-2.8,1.1c-1.1,0.3-2.6,0.4-4.3,0.4
		c-0.6,0-1.2,0-1.7,0c-0.6,0-1-0.1-1.4-0.1V63.9h3.5c1.3,0,2.4,0,3.3,0.1c0.9,0.1,1.6,0.2,2.2,0.4c1.1,0.4,2,1,2.4,1.7
		c0.5,0.7,0.7,1.6,0.7,2.6C175.7,69.7,175.6,70.4,175.3,71.1z M206.2,78.8c2.8-0.8,4.8-2,6.2-3.7c1.3-1.7,2-3.7,2-6.1
		c0-2.3-0.5-4.2-1.6-5.7c-1.1-1.5-2.7-2.7-4.7-3.4c-1.1-0.4-2.3-0.7-3.8-0.9c-1.5-0.2-3.1-0.3-4.8-0.3h-10.5V93h6.3V79.7h4.3
		l9.4,13.3h7.6l-10.2-14.1V78.8z M202,74.2c-1,0.1-2.2,0.2-3.7,0.2h-3.1V63.9h4.5c1.3,0,2.5,0.1,3.4,0.2c0.9,0.1,1.7,0.3,2.3,0.6
		c0.9,0.4,1.6,1,2,1.7c0.4,0.7,0.6,1.5,0.6,2.5c0,1.1-0.2,2-0.7,2.9c-0.5,0.8-1.4,1.5-2.6,2C203.8,73.9,203,74.1,202,74.2z
		 M252.8,68.6c-0.7-2.2-1.8-4.1-3.3-5.6c-1.4-1.6-3.2-2.8-5.3-3.7c-2.1-0.9-4.5-1.3-7.1-1.3c-2.7,0-5,0.4-7.1,1.3
		c-2.1,0.9-3.8,2.1-5.3,3.7c-1.4,1.6-2.5,3.5-3.3,5.6c-0.7,2.2-1.1,4.6-1.1,7.2s0.4,5,1.1,7.2c0.7,2.2,1.8,4.1,3.3,5.6
		c1.4,1.6,3.2,2.8,5.3,3.7c2.1,0.9,4.4,1.3,7.1,1.3c2.7,0,5-0.4,7.1-1.3c2.1-0.9,3.8-2.1,5.3-3.7c1.4-1.6,2.5-3.5,3.3-5.6
		c0.7-2.2,1.1-4.6,1.1-7.2S253.6,70.8,252.8,68.6z M246.7,81.3c-0.5,1.6-1.2,2.9-2.1,3.9c-0.9,1-2,1.8-3.2,2.3
		c-1.3,0.5-2.6,0.8-4.1,0.8c-1.5,0-2.9-0.3-4.1-0.8c-1.3-0.5-2.3-1.3-3.2-2.3c-0.9-1-1.6-2.3-2.1-3.9c-0.5-1.6-0.8-3.4-0.8-5.5
		c0-2.1,0.3-3.9,0.8-5.5c0.5-1.6,1.2-2.9,2.1-3.9c0.9-1,2-1.8,3.2-2.3c1.3-0.5,2.6-0.8,4.1-0.8c1.5,0,2.9,0.3,4.1,0.8
		c1.3,0.5,2.3,1.3,3.2,2.3c0.9,1,1.6,2.4,2.1,3.9c0.5,1.6,0.8,3.4,0.8,5.5C247.4,77.9,247.2,79.7,246.7,81.3z"/>
</g>
</svg>
