<?xml version="1.0" encoding="utf-8"?>
<!-- Generator: Adobe Illustrator 24.0.2, SVG Export Plug-In . SVG Version: 6.00 Build 0)  -->
<svg version="1.1" id="Capa_1" xmlns="http://www.w3.org/2000/svg" xmlns:xlink="http://www.w3.org/1999/xlink" x="0px" y="0px"
	 viewBox="0 0 258 157" style="enable-background:new 0 0 258 157;" xml:space="preserve">
<style type="text/css">
	.st0{fill:#FFFFFF;}
	.st1{fill:#99E6D8;}
	.st2{fill:#0082CA;}
	.st3{fill:#6FCFEB;}
</style>
<g>
	<path class="st0" d="M99,99.4l-2.9,7.1H97l0.8-2.1h2.9l0.8,2.1h0.9l-2.9-7.1H99z M100.5,103.5h-2.3l0.3-0.7
		c0.3-0.7,0.6-1.5,0.9-2.4h0c0.3,0.9,0.6,1.7,0.9,2.4L100.5,103.5z"/>
	<polygon class="st0" points="104.6,99.4 103.7,99.4 103.7,106.4 108,106.4 108,105.6 104.6,105.6 	"/>
	<path class="st0" d="M113.8,103.3c-0.1-0.1-0.3-0.2-0.4-0.3c-0.2-0.1-0.4-0.1-0.6-0.2v0c0.2-0.1,0.4-0.2,0.5-0.3
		c0.1-0.1,0.3-0.2,0.3-0.4c0.1-0.1,0.2-0.3,0.2-0.4c0-0.2,0.1-0.3,0.1-0.5c0-0.2,0-0.4-0.1-0.6c-0.1-0.2-0.2-0.3-0.3-0.5
		c-0.1-0.1-0.3-0.3-0.5-0.4c-0.2-0.1-0.4-0.2-0.6-0.2c-0.1,0-0.2,0-0.3-0.1c-0.1,0-0.2,0-0.3,0c-0.1,0-0.2,0-0.4,0
		c-0.1,0-0.3,0-0.4,0h-1.7v7.1h1.8c0.4,0,0.7,0,0.9,0c0.3,0,0.5-0.1,0.7-0.1c0.3-0.1,0.5-0.2,0.7-0.4c0.2-0.1,0.3-0.3,0.4-0.5
		c0.1-0.2,0.2-0.3,0.2-0.5c0-0.2,0.1-0.4,0.1-0.5c0-0.2,0-0.4-0.1-0.6C114,103.5,113.9,103.4,113.8,103.3z M110.2,100.1h1
		c0.2,0,0.4,0,0.6,0c0.2,0,0.3,0,0.5,0.1c0.3,0.1,0.5,0.2,0.6,0.4c0.1,0.2,0.2,0.4,0.2,0.6c0,0.3-0.1,0.5-0.2,0.7
		c-0.1,0.2-0.3,0.3-0.6,0.4c-0.1,0-0.2,0.1-0.3,0.1c-0.1,0-0.3,0-0.4,0h-1.3V100.1z M113.3,104.7c0,0.1-0.1,0.2-0.1,0.3
		c-0.1,0.1-0.2,0.2-0.3,0.3c-0.1,0.1-0.2,0.2-0.4,0.2c-0.1,0-0.3,0.1-0.5,0.1c-0.2,0-0.4,0-0.7,0h-1v-2.5h1.3c0.2,0,0.4,0,0.5,0
		c0.1,0,0.3,0,0.4,0.1c0.2,0,0.3,0.1,0.4,0.2c0.1,0.1,0.2,0.2,0.3,0.2c0.1,0.1,0.1,0.2,0.2,0.3c0,0.1,0,0.2,0,0.4
		C113.3,104.5,113.3,104.6,113.3,104.7z"/>
	<polygon class="st0" points="116.6,103.2 119.6,103.2 119.6,102.4 116.6,102.4 116.6,100.1 120,100.1 120,99.4 115.7,99.4 
		115.7,106.4 120.2,106.4 120.2,105.6 116.6,105.6 	"/>
	<path class="st0" d="M124.5,103.4c0.3,0,0.5-0.1,0.8-0.2c0.2-0.1,0.4-0.2,0.6-0.4c0.2-0.2,0.3-0.4,0.4-0.6c0.1-0.2,0.1-0.5,0.1-0.8
		c0-0.5-0.1-0.9-0.4-1.2c-0.3-0.3-0.6-0.5-1.1-0.7c-0.2,0-0.4-0.1-0.6-0.1c-0.2,0-0.5,0-0.8,0h-1.8v7.1h0.9v-2.9h1l2.2,2.9h0.9
		L124.5,103.4L124.5,103.4z M123.4,102.7h-0.8v-2.6h1c0.3,0,0.5,0,0.7,0c0.2,0,0.3,0,0.5,0.1c0.3,0.1,0.5,0.2,0.6,0.4
		c0.2,0.2,0.2,0.4,0.2,0.7c0,0.3-0.1,0.6-0.2,0.8c-0.2,0.2-0.4,0.3-0.7,0.4c-0.1,0-0.3,0.1-0.5,0.1
		C123.9,102.7,123.6,102.7,123.4,102.7z"/>
	<path class="st0" d="M132.3,105.7c-0.1,0-0.3,0-0.4,0.1c-0.1,0-0.3,0-0.4,0c-0.4,0-0.8-0.1-1.2-0.2c-0.4-0.1-0.7-0.3-0.9-0.5
		c-0.2-0.2-0.4-0.5-0.6-0.9c-0.1-0.4-0.2-0.8-0.2-1.3c0-0.5,0.1-0.9,0.2-1.3c0.1-0.4,0.3-0.7,0.6-0.9c0.3-0.2,0.6-0.4,0.9-0.6
		c0.3-0.1,0.7-0.2,1.1-0.2c0.3,0,0.5,0,0.8,0.1c0.3,0,0.5,0.1,0.7,0.2v-0.8c-0.1,0-0.2-0.1-0.3-0.1s-0.2-0.1-0.4-0.1
		c-0.1,0-0.3,0-0.4-0.1c-0.1,0-0.3,0-0.4,0c-0.6,0-1.1,0.1-1.5,0.3c-0.4,0.2-0.8,0.4-1.1,0.8c-0.3,0.3-0.6,0.7-0.7,1.2
		c-0.2,0.5-0.3,1-0.3,1.5c0,0.6,0.1,1.1,0.2,1.5c0.2,0.4,0.4,0.8,0.7,1.1c0.3,0.3,0.7,0.5,1.1,0.7c0.5,0.2,1,0.2,1.6,0.2
		c0.3,0,0.6,0,0.8-0.1c0.3,0,0.5-0.1,0.7-0.2v-0.8c-0.1,0-0.2,0.1-0.3,0.1C132.5,105.7,132.4,105.7,132.3,105.7z"/>
	<path class="st0" d="M136.6,99.4l-2.9,7.1h0.9l0.8-2.1h2.9l0.8,2.1h0.9l-2.9-7.1H136.6z M138.1,103.5h-2.3l0.3-0.7
		c0.3-0.7,0.6-1.5,0.9-2.4h0c0.3,0.9,0.6,1.7,0.9,2.4L138.1,103.5z"/>
	<path class="st0" d="M145,103c-0.2-0.1-0.4-0.3-0.7-0.3c-0.3-0.1-0.5-0.2-0.8-0.2c-0.2,0-0.4-0.1-0.6-0.2c-0.2-0.1-0.4-0.1-0.5-0.2
		s-0.3-0.2-0.3-0.3c-0.1-0.1-0.1-0.3-0.1-0.5c0-0.2,0-0.4,0.1-0.5c0.1-0.2,0.2-0.3,0.3-0.4c0.1-0.1,0.3-0.2,0.5-0.2
		c0.2-0.1,0.4-0.1,0.7-0.1c0.4,0,0.7,0,1,0.1c0.3,0.1,0.6,0.2,0.9,0.3v-0.8c-0.3-0.1-0.6-0.2-0.9-0.3c-0.3-0.1-0.7-0.1-1.1-0.1
		c-0.3,0-0.6,0-0.9,0.1c-0.3,0.1-0.5,0.2-0.8,0.4c-0.2,0.2-0.4,0.4-0.5,0.6c-0.1,0.3-0.2,0.6-0.2,0.9c0,0.3,0.1,0.6,0.2,0.8
		c0.1,0.2,0.3,0.4,0.5,0.5c0.2,0.1,0.4,0.3,0.7,0.3c0.3,0.1,0.5,0.1,0.8,0.2c0.2,0,0.4,0.1,0.6,0.2c0.2,0.1,0.4,0.1,0.5,0.2
		c0.1,0.1,0.3,0.2,0.3,0.3c0.1,0.1,0.1,0.3,0.1,0.5c0,0.3,0,0.5-0.1,0.6c-0.1,0.2-0.2,0.3-0.4,0.4c-0.2,0.1-0.4,0.2-0.6,0.2
		c-0.2,0-0.5,0.1-0.7,0.1c-0.2,0-0.3,0-0.5,0c-0.2,0-0.3-0.1-0.5-0.1c-0.2,0-0.3-0.1-0.5-0.1c-0.2-0.1-0.3-0.1-0.4-0.2v0.8
		c0.1,0,0.2,0.1,0.3,0.1c0.1,0,0.3,0.1,0.5,0.1s0.4,0.1,0.5,0.1c0.2,0,0.4,0,0.6,0c0.4,0,0.8,0,1.1-0.1c0.3-0.1,0.6-0.2,0.9-0.4
		c0.2-0.2,0.4-0.4,0.6-0.7c0.1-0.3,0.2-0.6,0.2-0.9c0-0.4-0.1-0.7-0.2-0.9C145.4,103.3,145.2,103.1,145,103z"/>
	<polygon class="st0" points="150.5,102.8 150.5,102.8 148.5,99.4 147.5,99.4 150.1,103.6 150.1,106.4 151,106.4 151,103.6 
		153.5,99.4 152.6,99.4 	"/>
	<path class="st0" d="M158,104.7c0,0.2,0,0.4-0.1,0.5c-0.1,0.1-0.1,0.3-0.2,0.3c-0.1,0.1-0.2,0.1-0.3,0.2c-0.1,0-0.3,0.1-0.4,0.1
		c-0.2,0-0.3,0-0.5,0c-0.2,0-0.3-0.1-0.4-0.1v0.8c0.1,0,0.2,0.1,0.4,0.1c0.2,0,0.4,0.1,0.6,0.1c0.3,0,0.5,0,0.8-0.1
		c0.2-0.1,0.4-0.2,0.6-0.3c0.2-0.1,0.3-0.3,0.4-0.5c0.1-0.2,0.1-0.5,0.1-0.8v-5.4H158V104.7z"/>
	<path class="st0" d="M162.8,99.4l-2.9,7.1h0.9l0.8-2.1h2.9l0.8,2.1h0.9l-2.9-7.1H162.8z M164.3,103.5H162l0.3-0.7
		c0.3-0.7,0.6-1.5,0.9-2.4h0c0.3,0.9,0.6,1.7,0.9,2.4L164.3,103.5z"/>
	<path class="st0" d="M170.3,103.4c0.3,0,0.5-0.1,0.8-0.2c0.2-0.1,0.4-0.2,0.6-0.4c0.2-0.2,0.3-0.4,0.4-0.6c0.1-0.2,0.1-0.5,0.1-0.8
		c0-0.5-0.1-0.9-0.4-1.2c-0.3-0.3-0.6-0.5-1.1-0.7c-0.2,0-0.4-0.1-0.6-0.1c-0.2,0-0.5,0-0.8,0h-1.8v7.1h0.9v-2.9h1l2.2,2.9h0.9
		L170.3,103.4L170.3,103.4z M169.2,102.7h-0.8v-2.6h1c0.3,0,0.5,0,0.7,0c0.2,0,0.3,0,0.5,0.1c0.3,0.1,0.5,0.2,0.6,0.4
		c0.2,0.2,0.2,0.4,0.2,0.7c0,0.3-0.1,0.6-0.2,0.8c-0.2,0.2-0.4,0.3-0.7,0.4c-0.1,0-0.3,0.1-0.5,0.1
		C169.7,102.7,169.5,102.7,169.2,102.7z"/>
	<path class="st0" d="M179,100.8c-0.2-0.3-0.5-0.5-0.8-0.7c-0.3-0.2-0.7-0.4-1.1-0.5c-0.2-0.1-0.5-0.1-0.8-0.1c-0.3,0-0.6,0-0.9,0
		h-1.6v7.1h1.6c0.3,0,0.6,0,0.9,0c0.3,0,0.5-0.1,0.8-0.1c0.4-0.1,0.8-0.3,1.1-0.5s0.6-0.5,0.8-0.8c0.2-0.3,0.4-0.6,0.5-1
		c0.1-0.4,0.2-0.7,0.2-1.2c0-0.4-0.1-0.8-0.2-1.1C179.3,101.4,179.2,101,179,100.8z M178.3,104.5c-0.3,0.4-0.7,0.7-1.3,0.9
		c-0.2,0.1-0.5,0.1-0.7,0.1c-0.3,0-0.6,0-0.9,0h-0.7v-5.5h0.7c0.3,0,0.6,0,0.9,0c0.3,0,0.5,0.1,0.7,0.1c0.6,0.2,1,0.5,1.3,0.9
		c0.3,0.4,0.4,1,0.4,1.6C178.7,103.5,178.6,104.1,178.3,104.5z"/>
	<rect x="181.1" y="99.4" class="st0" width="0.9" height="7.1"/>
	<path class="st0" d="M188.6,103.1c0,0.7,0,1.4,0.1,2.1h0c-0.4-0.7-0.8-1.3-1.3-1.9l-2.8-3.9h-0.9v7.1h0.9v-3.6c0-0.9,0-1.6-0.1-2.3
		h0c0.4,0.6,0.8,1.2,1.3,1.9l2.8,3.9h0.9v-7.1h-0.9V103.1z"/>
	<polygon class="st0" points="192.2,103.2 195.2,103.2 195.2,102.4 192.2,102.4 192.2,100.1 195.6,100.1 195.6,99.4 191.3,99.4 
		191.3,106.4 195.8,106.4 195.8,105.6 192.2,105.6 	"/>
	<path class="st0" d="M201,103c-0.2-0.1-0.4-0.3-0.7-0.3c-0.3-0.1-0.5-0.2-0.8-0.2c-0.2,0-0.4-0.1-0.6-0.2c-0.2-0.1-0.4-0.1-0.5-0.2
		c-0.1-0.1-0.3-0.2-0.3-0.3c-0.1-0.1-0.1-0.3-0.1-0.5c0-0.2,0-0.4,0.1-0.5c0.1-0.2,0.2-0.3,0.3-0.4c0.1-0.1,0.3-0.2,0.5-0.2
		c0.2-0.1,0.4-0.1,0.7-0.1c0.4,0,0.7,0,1,0.1c0.3,0.1,0.6,0.2,0.9,0.3v-0.8c-0.3-0.1-0.6-0.2-0.9-0.3c-0.3-0.1-0.7-0.1-1.1-0.1
		c-0.3,0-0.6,0-0.9,0.1c-0.3,0.1-0.5,0.2-0.8,0.4c-0.2,0.2-0.4,0.4-0.5,0.6c-0.1,0.3-0.2,0.6-0.2,0.9c0,0.3,0.1,0.6,0.2,0.8
		c0.1,0.2,0.3,0.4,0.5,0.5c0.2,0.1,0.4,0.3,0.7,0.3c0.3,0.1,0.5,0.1,0.8,0.2c0.2,0,0.4,0.1,0.6,0.2c0.2,0.1,0.4,0.1,0.5,0.2
		c0.1,0.1,0.3,0.2,0.3,0.3c0.1,0.1,0.1,0.3,0.1,0.5c0,0.3,0,0.5-0.1,0.6c-0.1,0.2-0.2,0.3-0.4,0.4c-0.2,0.1-0.4,0.2-0.6,0.2
		c-0.2,0-0.5,0.1-0.7,0.1c-0.2,0-0.3,0-0.5,0c-0.2,0-0.3-0.1-0.5-0.1c-0.2,0-0.3-0.1-0.5-0.1c-0.2-0.1-0.3-0.1-0.4-0.2v0.8
		c0.1,0,0.2,0.1,0.3,0.1c0.1,0,0.3,0.1,0.5,0.1c0.2,0,0.4,0.1,0.5,0.1c0.2,0,0.4,0,0.6,0c0.4,0,0.8,0,1.1-0.1
		c0.3-0.1,0.6-0.2,0.9-0.4c0.2-0.2,0.4-0.4,0.6-0.7c0.1-0.3,0.2-0.6,0.2-0.9c0-0.4-0.1-0.7-0.2-0.9C201.4,103.3,201.2,103.1,201,103
		z"/>
	<path class="st0" d="M209.6,103.3c-0.2,0.4-0.4,0.9-0.6,1.6h0c-0.2-0.6-0.4-1.2-0.6-1.6l-1.7-4h-1.2v7.1h0.9V103
		c0-0.8,0-1.7-0.1-2.7h0c0.2,0.7,0.5,1.3,0.7,1.9l1.8,4.2h0.4l1.8-4.2c0.2-0.5,0.5-1.2,0.7-1.9h0c0,1-0.1,1.9-0.1,2.7v3.4h0.9v-7.1
		h-1.2L209.6,103.3z"/>
	<path class="st0" d="M219.7,100.2c-0.3-0.3-0.6-0.6-1-0.8c-0.4-0.2-0.9-0.3-1.4-0.3c-0.5,0-1,0.1-1.4,0.3c-0.4,0.2-0.7,0.4-1,0.8
		c-0.3,0.3-0.5,0.7-0.7,1.2c-0.2,0.4-0.2,0.9-0.2,1.5c0,0.5,0.1,1,0.2,1.5c0.1,0.4,0.4,0.8,0.6,1.2c0.3,0.3,0.6,0.6,1,0.8
		s0.9,0.3,1.4,0.3c0.5,0,0.9-0.1,1.4-0.3c0.4-0.2,0.7-0.4,1-0.8c0.3-0.3,0.5-0.7,0.7-1.2c0.2-0.4,0.2-0.9,0.2-1.5
		c0-0.5-0.1-1-0.2-1.5C220.2,101,220,100.6,219.7,100.2z M219.5,104.1c-0.1,0.4-0.3,0.7-0.5,0.9c-0.2,0.2-0.5,0.4-0.8,0.5
		c-0.3,0.1-0.6,0.2-1,0.2c-0.3,0-0.7-0.1-1-0.2c-0.3-0.1-0.6-0.3-0.8-0.5c-0.2-0.2-0.4-0.5-0.5-0.9c-0.1-0.4-0.2-0.8-0.2-1.3
		c0-0.5,0.1-0.9,0.2-1.3c0.1-0.4,0.3-0.7,0.5-0.9c0.2-0.2,0.5-0.4,0.8-0.6c0.3-0.1,0.6-0.2,1-0.2s0.7,0.1,1,0.2
		c0.3,0.1,0.6,0.3,0.8,0.6c0.2,0.2,0.4,0.5,0.5,0.9c0.1,0.4,0.2,0.8,0.2,1.3C219.7,103.4,219.6,103.8,219.5,104.1z"/>
	<path class="st0" d="M225,103.4c0.3,0,0.5-0.1,0.8-0.2c0.2-0.1,0.4-0.2,0.6-0.4c0.2-0.2,0.3-0.4,0.4-0.6c0.1-0.2,0.1-0.5,0.1-0.8
		c0-0.5-0.1-0.9-0.4-1.2c-0.3-0.3-0.6-0.5-1.1-0.7c-0.2,0-0.4-0.1-0.6-0.1c-0.2,0-0.5,0-0.8,0h-1.8v7.1h0.9v-2.9h1l2.2,2.9h0.9
		L225,103.4L225,103.4z M223.8,102.7H223v-2.6h1c0.3,0,0.5,0,0.7,0c0.2,0,0.3,0,0.5,0.1c0.3,0.1,0.5,0.2,0.6,0.4
		c0.2,0.2,0.2,0.4,0.2,0.7c0,0.3-0.1,0.6-0.2,0.8c-0.2,0.2-0.4,0.3-0.7,0.4c-0.1,0-0.3,0.1-0.5,0.1
		C224.3,102.7,224.1,102.7,223.8,102.7z"/>
	<polygon class="st0" points="229.4,103.2 232.4,103.2 232.4,102.4 229.4,102.4 229.4,100.1 232.8,100.1 232.8,99.4 228.5,99.4 
		228.5,106.4 233,106.4 233,105.6 229.4,105.6 	"/>
	<polygon class="st0" points="235.3,99.4 234.5,99.4 234.5,106.4 238.8,106.4 238.8,105.6 235.3,105.6 	"/>
	<path class="st0" d="M245.1,100.2c-0.3-0.3-0.6-0.6-1-0.8c-0.4-0.2-0.9-0.3-1.4-0.3c-0.5,0-1,0.1-1.4,0.3c-0.4,0.2-0.7,0.4-1,0.8
		c-0.3,0.3-0.5,0.7-0.7,1.2c-0.2,0.4-0.2,0.9-0.2,1.5c0,0.5,0.1,1,0.2,1.5c0.1,0.4,0.4,0.8,0.6,1.2c0.3,0.3,0.6,0.6,1,0.8
		s0.9,0.3,1.4,0.3c0.5,0,0.9-0.1,1.4-0.3c0.4-0.2,0.7-0.4,1-0.8c0.3-0.3,0.5-0.7,0.7-1.2c0.2-0.4,0.2-0.9,0.2-1.5
		c0-0.5-0.1-1-0.2-1.5C245.6,101,245.4,100.6,245.1,100.2z M244.9,104.1c-0.1,0.4-0.3,0.7-0.5,0.9c-0.2,0.2-0.5,0.4-0.8,0.5
		c-0.3,0.1-0.6,0.2-1,0.2c-0.3,0-0.7-0.1-1-0.2c-0.3-0.1-0.6-0.3-0.8-0.5c-0.2-0.2-0.4-0.5-0.5-0.9c-0.1-0.4-0.2-0.8-0.2-1.3
		c0-0.5,0.1-0.9,0.2-1.3c0.1-0.4,0.3-0.7,0.5-0.9c0.2-0.2,0.5-0.4,0.8-0.6c0.3-0.1,0.6-0.2,1-0.2s0.7,0.1,1,0.2
		c0.3,0.1,0.6,0.3,0.8,0.6c0.2,0.2,0.4,0.5,0.5,0.9c0.1,0.4,0.2,0.8,0.2,1.3C245.1,103.4,245.1,103.8,244.9,104.1z"/>
	<path class="st0" d="M251.8,103.6c-0.1-0.2-0.3-0.4-0.5-0.6c-0.2-0.1-0.4-0.3-0.7-0.3c-0.3-0.1-0.5-0.2-0.8-0.2
		c-0.2,0-0.4-0.1-0.6-0.2c-0.2-0.1-0.4-0.1-0.5-0.2c-0.1-0.1-0.3-0.2-0.3-0.3c-0.1-0.1-0.1-0.3-0.1-0.5c0-0.2,0-0.4,0.1-0.5
		c0.1-0.2,0.2-0.3,0.3-0.4c0.1-0.1,0.3-0.2,0.5-0.2c0.2-0.1,0.4-0.1,0.7-0.1c0.4,0,0.7,0,1,0.1c0.3,0.1,0.6,0.2,0.9,0.3v-0.8
		c-0.3-0.1-0.6-0.2-0.9-0.3c-0.3-0.1-0.7-0.1-1.1-0.1c-0.3,0-0.6,0-0.9,0.1c-0.3,0.1-0.5,0.2-0.8,0.4c-0.2,0.2-0.4,0.4-0.5,0.6
		c-0.1,0.3-0.2,0.6-0.2,0.9c0,0.3,0.1,0.6,0.2,0.8c0.1,0.2,0.3,0.4,0.5,0.5c0.2,0.1,0.4,0.3,0.7,0.3c0.3,0.1,0.5,0.1,0.8,0.2
		c0.2,0,0.4,0.1,0.6,0.2c0.2,0.1,0.4,0.1,0.5,0.2c0.1,0.1,0.3,0.2,0.3,0.3c0.1,0.1,0.1,0.3,0.1,0.5c0,0.3,0,0.5-0.1,0.6
		c-0.1,0.2-0.2,0.3-0.4,0.4c-0.2,0.1-0.4,0.2-0.6,0.2c-0.2,0-0.5,0.1-0.7,0.1c-0.2,0-0.3,0-0.5,0c-0.2,0-0.3-0.1-0.5-0.1
		c-0.2,0-0.3-0.1-0.5-0.1c-0.2-0.1-0.3-0.1-0.4-0.2v0.8c0.1,0,0.2,0.1,0.3,0.1c0.1,0,0.3,0.1,0.5,0.1c0.2,0,0.4,0.1,0.5,0.1
		c0.2,0,0.4,0,0.6,0c0.4,0,0.8,0,1.1-0.1c0.3-0.1,0.6-0.2,0.9-0.4c0.2-0.2,0.4-0.4,0.6-0.7c0.1-0.3,0.2-0.6,0.2-0.9
		C252,104.1,251.9,103.8,251.8,103.6z"/>
	<path class="st1" d="M64.8,65.5c-4-3.8-9.2-4.5-11.8-4.6c-0.4,0.3-0.7,0.5-1.1,0.8c-3.4,2.8-5.8,6.6-7,10.8c1.9,0,4.2,0.1,6.9,0.4
		c10.6,0.9,19.7,8,19.7,8S70.5,70.9,64.8,65.5z"/>
	<g>
		<g>
			<path class="st2" d="M92.9,80C92.9,80,92.8,80.1,92.9,80c-1.4,2,0,4.5,0.2,5c-0.1-0.3-0.6-1.3,0-3c0-0.1,0-0.1,0.1-0.1
				c0.9-1.8,4.9-0.8,3.3,3c-0.1,0.3-0.3,0.5-0.5,0.8c-1.1,1.5-3.3,2.5-5.9,3c-0.6,0.1-1.3,0.2-2,0.3c-1,0.1-2,0.1-3,0.1
				c-0.3,0-0.6,0-0.8-0.1c-1.9,1.4-4.5,2.4-7,2.5c-0.6,0-1.2,0-1.8,0c-0.8-0.1-1.5-0.2-2.2-0.4c0,0,0,0-0.1,0
				c-0.9-0.2-1.7-0.5-2.5-0.8c-4.2-1.5-7.5-3-10.3-3.9c0,0,0,0,0,0c-1.1,0.1-2.2,0.1-3.3,0.2c-4.2,0.4-7.2,2-9.4,3.7
				c0,0,0,0.1,0.1,0.1c0,0,0,0,0.1,0.1c0.5,0.8,1.1,1.5,1.7,2.2c0.2,0.2,0.4,0.4,0.6,0.7c0,0,0.1,0.1,0.1,0.1
				c2.8,2.8,6.3,4.8,10.3,5.8l0.6,0.1c0.2,0,0.4,0.1,0.6,0.1c0,0,0,0,0,0c2.1,0.4,4.2,0.9,6.3,1.2c1.1,0.2,2.2,0.3,3.3,0.4
				c0.5,0.1,1.1,0.1,1.6,0.1c0.9,0.1,1.7,0.1,2.6,0.1c0.8,0,1.6,0,2.5-0.1c0,0-0.1,0-0.1,0.1c8.5-0.9,16-4,19.6-9.4
				c1-1.5,1.7-3.2,2.1-5.1c0.1-0.7,0.2-1.5,0.2-2.2C100.1,78.5,94.5,77.9,92.9,80z"/>
		</g>
	</g>
	<path class="st3" d="M88,82.3c-0.1-1.2-0.5-2.1-0.9-2.8c0,0,0-0.1-0.1-0.1c-0.2-0.3-0.4-0.5-0.6-0.8c-1-1-2.1-1.1-2.1-1.1
		c-1.3-0.1-3.1,0.1-3.2,2.3c-0.1,2.1,1.4,2.9,1.6,3c-0.1-0.1-0.5-0.4-0.9-1.4c-0.6-1.2,1-3.3,2.7-2.2c0.7,0.5,1.2,1.4,1.1,2.3
		c-0.1,1.3-1.2,2.6-4,3h0c-1.8,0.2-3.3,0.3-4.4,0.3c0,0,0,0-0.1,0c-3.3-0.3-6.7-1.2-11.6-4.9c-5.6-4.2-7.4-5-15.9-5.5
		c-1.9-0.1-3.3-0.2-4.4-0.2c-0.3,0-0.5,0-0.8,0c0,0,0,0.1,0,0.1l0,0.1c-0.2,1.2-0.3,2.5-0.3,3.7c0,3.8,1,7.6,3,10.9
		c1.1-0.8,2.3-1.5,3.7-2.3c3.3-1.9,6.2-1.7,9.7-0.5c0,0,0,0,0,0c2.8,0.9,6.1,2.4,10.3,3.9c0.8,0.3,1.6,0.6,2.5,0.8c0,0,0,0,0.1,0
		c0.7,0.2,1.5,0.3,2.2,0.4c0.6,0.1,1.2,0.1,1.8,0c2.6-0.1,5.1-1.1,7-2.5c1.5-1.1,2.7-2.5,3.2-4C87.9,84.1,88.1,83.2,88,82.3z"/>
	<path class="st0" d="M19.4,57.5L6,91.3h6.6l3.3-8.6h12.7l3.3,8.6h6.5L25.1,57.5H19.4z M26.7,77.5h-8.7l1.2-3c0.9-2.4,2-5.3,3.2-8.9
		h0.1c1.2,3.5,2.2,6.5,3.2,8.9L26.7,77.5z M108.6,76.9c0,2.4-0.3,4.3-0.9,5.6c-0.6,1.5-1.6,2.6-2.8,3.3c-1.2,0.7-2.7,1-4.3,1
		c-0.3,0-0.6,0-0.9,0c-0.3,1.9-1.1,3.6-2.1,5.1c0.9,0.1,1.9,0.2,2.9,0.2c1.8,0,3.4-0.2,4.8-0.5c1.4-0.3,2.7-0.8,3.8-1.5
		c1.1-0.6,2-1.4,2.8-2.4c0.8-0.9,1.4-2,1.8-3.2c0.4-0.9,0.6-2,0.8-3.1c0.2-1.1,0.2-2.4,0.2-3.8V57.5h-6.2V76.9z M93.5,82.5
		c-0.1-0.2-0.2-0.4-0.2-0.7c0,0,0,0.1-0.1,0.1c-0.6,1.7-0.2,2.8,0,3c-0.3-0.4-1.7-3-0.3-4.9c-0.1-0.9-0.2-2-0.2-3.2V57.5h-6.2V62
		c-4.7-6.1-12.3-9.9-20.8-9.9c-7.8,0-15.2,3.5-20.2,9.6c-2.6,3.1-4.4,6.8-5.3,10.8c-0.4,1.7-0.6,3.4-0.6,5.1c0,0.2,0,0.4,0,0.6
		c0,4.8,1.3,9.5,3.8,13.6c0.3,0.6,0.7,1.1,1.1,1.7c1.2,1.7,2.6,3.2,4.2,4.6c4.7,4.1,10.8,6.3,17,6.3c3.5,0,6.8-0.7,10-2
		c0.8-0.3,1.6-0.7,2.4-1.2c0,0,0.1,0,0.1-0.1c-0.8,0.1-1.6,0.1-2.5,0.1c-0.9,0-1.7,0-2.6-0.1c-0.5,0-1.1-0.1-1.6-0.1
		c-1.1-0.1-2.2-0.3-3.3-0.4c-2.1-0.3-4.2-0.7-6.3-1.2c0,0,0,0,0,0c-0.2,0-0.4-0.1-0.6-0.1L60.7,99c-3.9-0.9-7.5-2.9-10.3-5.8
		c0,0-0.1-0.1-0.1-0.1c-0.2-0.2-0.4-0.4-0.6-0.7c-0.6-0.7-1.2-1.4-1.7-2.2c0-0.1-0.1-0.1-0.1-0.1c0,0,0-0.1-0.1-0.1
		c-0.2-0.3-0.5-0.7-0.7-1c0,0,0,0,0-0.1c-1.9-3.3-3-7-3-10.9c0-1.3,0.1-2.5,0.3-3.7l0-0.1c0,0,0-0.1,0-0.1c0.1-0.5,0.2-0.9,0.3-1.4
		c0-0.1,0-0.2,0.1-0.3c1.2-4.2,3.6-8,7-10.8c0.4-0.3,0.7-0.6,1.1-0.8c3.6-2.7,8.1-4.1,12.6-4.1c9.8,0,18.2,6.3,20.8,15.2v5.4
		c0,0.4,0,0.8,0,1.2c0.2,0.2,0.4,0.5,0.6,0.8c0,0,0.1,0.1,0.1,0.1c0.4,0.7,0.7,1.6,0.9,2.8c0.1,0.9,0,1.7-0.3,2.6
		c0.4,1,1,1.9,1.6,2.7c0.3,0.4,0.6,0.7,1,1c2.5-0.5,4.8-1.5,5.9-3C95,84.9,94.1,83.9,93.5,82.5z M132.9,57.5l-13.4,33.8h6.6l3.3-8.6
		h12.7l3.3,8.6h6.5l-13.4-33.8H132.9z M140.2,77.5h-8.7l1.2-3c0.9-2.4,2-5.3,3.2-8.9h0.1c1.2,3.5,2.2,6.5,3.2,8.9L140.2,77.5z
		 M174.2,58.3c-1-0.3-2.1-0.5-3.3-0.6c-1.2-0.1-2.7-0.2-4.3-0.2h-9.8v33.8h6.2V78.1c0.5,0.1,1,0.1,1.5,0.1c0.5,0,1.1,0,1.6,0
		c2.4,0,4.6-0.2,6.4-0.7c1.9-0.5,3.5-1.2,4.8-2.1c1.3-0.9,2.3-2,3-3.3c0.7-1.3,1-2.8,1-4.4c0-2.4-0.6-4.4-1.9-5.9
		C178.3,60.2,176.5,59.1,174.2,58.3z M174.5,69.8c-0.3,0.7-0.8,1.3-1.5,1.7c-0.7,0.5-1.6,0.9-2.7,1.1c-1.1,0.3-2.5,0.4-4.2,0.4
		c-0.6,0-1.2,0-1.7,0c-0.5,0-1-0.1-1.4-0.1V62.7h3.5c1.3,0,2.3,0,3.2,0.1c0.9,0.1,1.6,0.2,2.2,0.4c1.1,0.4,1.9,1,2.4,1.7
		c0.5,0.7,0.7,1.6,0.7,2.6C175,68.3,174.8,69.1,174.5,69.8z M205,77.3c2.7-0.8,4.8-2,6.1-3.7c1.3-1.6,2-3.6,2-6
		c0-2.3-0.5-4.1-1.6-5.6c-1.1-1.5-2.6-2.6-4.6-3.4c-1-0.4-2.3-0.7-3.8-0.9c-1.5-0.2-3.1-0.3-4.8-0.3h-10.3v33.8h6.2V78.2h4.2
		l9.2,13.1h7.4L205,77.4V77.3z M200.8,72.9c-1,0.1-2.2,0.2-3.6,0.2h-3.1V62.7h4.4c1.3,0,2.4,0.1,3.3,0.2c0.9,0.1,1.6,0.3,2.2,0.6
		c0.9,0.4,1.6,1,1.9,1.7c0.4,0.7,0.6,1.5,0.6,2.4c0,1.1-0.2,2-0.7,2.8c-0.5,0.8-1.3,1.5-2.6,1.9C202.6,72.5,201.8,72.7,200.8,72.9z
		 M250.8,67.3c-0.7-2.2-1.8-4-3.2-5.6c-1.4-1.6-3.1-2.8-5.2-3.6c-2-0.9-4.4-1.3-7-1.3c-2.6,0-4.9,0.4-7,1.3c-2,0.9-3.8,2.1-5.2,3.6
		c-1.4,1.6-2.5,3.4-3.2,5.6c-0.7,2.1-1.1,4.5-1.1,7.1c0,2.6,0.4,4.9,1.1,7.1c0.7,2.2,1.8,4,3.2,5.6c1.4,1.6,3.1,2.8,5.2,3.6
		c2,0.9,4.4,1.3,7,1.3c2.6,0,4.9-0.4,7-1.3c2-0.9,3.8-2.1,5.2-3.6c1.4-1.6,2.5-3.4,3.2-5.6c0.7-2.1,1.1-4.5,1.1-7.1
		C251.9,71.8,251.6,69.5,250.8,67.3z M244.8,79.8c-0.5,1.5-1.2,2.8-2.1,3.8c-0.9,1-2,1.8-3.2,2.3c-1.2,0.5-2.6,0.8-4,0.8
		c-1.5,0-2.8-0.3-4-0.8c-1.2-0.5-2.3-1.3-3.2-2.3c-0.9-1-1.6-2.3-2.1-3.8c-0.5-1.5-0.8-3.3-0.8-5.4c0-2.1,0.3-3.9,0.8-5.4
		c0.5-1.5,1.2-2.8,2.1-3.9c0.9-1,2-1.8,3.2-2.3c1.2-0.5,2.6-0.8,4-0.8c1.5,0,2.8,0.3,4,0.8c1.2,0.5,2.3,1.3,3.2,2.3
		c0.9,1,1.6,2.3,2.1,3.9c0.5,1.5,0.8,3.3,0.8,5.4C245.5,76.5,245.3,78.3,244.8,79.8z"/>
</g>
</svg>
